<svg width="41" height="39" viewBox="0 0 41 39" fill="none" xmlns="http://www.w3.org/2000/svg">
<path d="M25.1099 29.0388H30.9045V23.231H34.7675V29.0388H40.5621V32.9106H34.7675V38.7184H30.9045V32.9106H25.1099V29.0388ZM13.5207 8.71163C16.2248 8.71163 18.3495 10.8411 18.3495 13.5514C18.3495 16.2617 16.2248 18.3912 13.5207 18.3912C10.8166 18.3912 8.69188 16.2617 8.69188 13.5514C8.69188 10.8411 10.8166 8.71163 13.5207 8.71163ZM13.5207 0C21.0537 0 27.0414 6.00135 27.0414 13.5514C27.0414 23.6182 13.5207 38.7184 13.5207 38.7184C13.5207 38.7184 0 23.6182 0 13.5514C0 6.00135 5.98774 0 13.5207 0ZM13.5207 3.87184C8.11242 3.87184 3.86306 8.13086 3.86306 13.5514C3.86306 15.4873 3.86306 19.3592 13.5207 32.3298C23.1783 19.3592 23.1783 15.4873 23.1783 13.5514C23.1783 8.13086 18.929 3.87184 13.5207 3.87184Z" fill="white"/>
</svg>
