<svg width="29" height="39" viewBox="0 0 29 39" fill="none" xmlns="http://www.w3.org/2000/svg">
<path d="M14.5 33.984L5.8 38.0621C4.41905 38.704 3.10714 38.5817 1.86429 37.6951C0.621429 36.8085 0 35.5526 0 33.9274V4.5312C0 3.28512 0.406 2.21878 1.218 1.33217C2.03 0.445569 3.00495 0.0015104 4.14286 0H24.8571C25.9964 0 26.9721 0.444058 27.7841 1.33217C28.5961 2.22029 29.0014 3.28663 29 4.5312V33.9274C29 35.5511 28.3786 36.807 27.1357 37.6951C25.8929 38.5832 24.581 38.7055 23.2 38.0621L14.5 33.984ZM14.5 28.9997L24.8571 33.8708V4.5312H4.14286V33.8708L14.5 28.9997ZM14.5 4.5312H4.14286H24.8571H14.5Z" fill="#FF6C6F"/>
</svg>
