<svg width="24" height="24" viewBox="0 0 24 24" fill="none" xmlns="http://www.w3.org/2000/svg">
<path d="M20.707 14.7036C20.5918 13.9032 19.9738 13.2792 19.1782 13.0932C16.0858 12.3684 15.3106 10.5876 15.1798 8.61242C14.6314 8.51042 13.6558 8.40002 11.9998 8.40002C10.3438 8.40002 9.36819 8.51042 8.81979 8.61242C8.68899 10.5876 7.91379 12.3684 4.82139 13.0932C4.02579 13.2804 3.40779 13.9032 3.29259 14.7036L2.69619 18.834C2.48619 20.2884 3.55419 21.6 5.03979 21.6H18.9598C20.4442 21.6 21.5134 20.2884 21.3034 18.834L20.707 14.7036ZM11.9998 18.5904C10.3258 18.5904 8.96859 17.2464 8.96859 15.5904C8.96859 13.9344 10.3258 12.5904 11.9998 12.5904C13.6738 12.5904 15.031 13.9344 15.031 15.5904C15.031 17.2464 13.6726 18.5904 11.9998 18.5904ZM23.9398 7.20002C23.911 5.40002 19.3294 2.40122 11.9998 2.40002C4.66899 2.40122 0.0873902 5.40002 0.0597902 7.20002C0.0321902 9.00002 0.0849903 11.3424 3.10179 10.9524C6.63099 10.4952 6.41379 9.26282 6.41379 7.50122C6.41379 6.27242 9.28419 5.97602 11.9998 5.97602C14.7154 5.97602 17.5846 6.27242 17.5858 7.50122C17.5858 9.26282 17.3686 10.4952 20.8978 10.9524C23.9134 11.3424 23.9674 9.00002 23.9398 7.20002Z" fill="black"/>
</svg>
