<svg width="26" height="25" viewBox="0 0 26 25" fill="none" xmlns="http://www.w3.org/2000/svg">
<path d="M25 12.4993H8.97189M3.31438 12.4993H1M3.31438 12.4993C3.31438 11.7427 3.61234 11.0171 4.14271 10.482C4.67309 9.947 5.39243 9.64643 6.14249 9.64643C6.89255 9.64643 7.61189 9.947 8.14226 10.482C8.67264 11.0171 8.9706 11.7427 8.9706 12.4993C8.9706 13.256 8.67264 13.9816 8.14226 14.5167C7.61189 15.0517 6.89255 15.3523 6.14249 15.3523C5.39243 15.3523 4.67309 15.0517 4.14271 14.5167C3.61234 13.9816 3.31438 13.256 3.31438 12.4993ZM25 21.1458H17.5431M17.5431 21.1458C17.5431 21.9026 17.2445 22.6291 16.714 23.1642C16.1835 23.6994 15.464 24 14.7137 24C13.9637 24 13.2443 23.6981 12.714 23.1631C12.1836 22.6281 11.8856 21.9024 11.8856 21.1458M17.5431 21.1458C17.5431 20.389 17.2445 19.6638 16.714 19.1286C16.1835 18.5935 15.464 18.2929 14.7137 18.2929C13.9637 18.2929 13.2443 18.5934 12.714 19.1285C12.1836 19.6635 11.8856 20.3891 11.8856 21.1458M11.8856 21.1458H1M25 3.85292H20.9719M15.3144 3.85292H1M15.3144 3.85292C15.3144 3.09628 15.6123 2.37063 16.1427 1.8356C16.6731 1.30057 17.3924 1 18.1425 1C18.5139 1 18.8816 1.07379 19.2248 1.21717C19.5679 1.36054 19.8796 1.57068 20.1423 1.8356C20.4049 2.10052 20.6132 2.41502 20.7553 2.76115C20.8974 3.10728 20.9706 3.47827 20.9706 3.85292C20.9706 4.22757 20.8974 4.59855 20.7553 4.94468C20.6132 5.29081 20.4049 5.60531 20.1423 5.87023C19.8796 6.13515 19.5679 6.34529 19.2248 6.48867C18.8816 6.63204 18.5139 6.70583 18.1425 6.70583C17.3924 6.70583 16.6731 6.40526 16.1427 5.87023C15.6123 5.33521 15.3144 4.60956 15.3144 3.85292Z" stroke="#FF6C6F" stroke-width="2" stroke-miterlimit="10" stroke-linecap="round"/>
</svg>
