<svg width="62" height="62" viewBox="0 0 62 62" fill="none" xmlns="http://www.w3.org/2000/svg">
<path d="M46.5 38.75V46.5H38.75V51.6667H46.5V59.4167H51.6667V51.6667H59.4167V46.5H51.6667V38.75H46.5ZM34.3583 54.25H12.9167C10.075 54.25 7.75 51.925 7.75 49.0833V12.9167C7.75 10.075 10.075 7.75 12.9167 7.75H49.0833C51.925 7.75 54.25 10.075 54.25 12.9167V34.3583C52.7 33.8417 50.8917 33.5833 49.0833 33.5833C46.2417 33.5833 43.4 34.3583 41.075 35.9083L37.4583 31L28.4167 42.625L21.9583 34.875L12.9167 46.5H33.8417C33.5833 47.275 33.5833 48.3083 33.5833 49.0833C33.5833 50.8917 33.8417 52.7 34.3583 54.25Z" fill="#FF6C6F"/>
</svg>
