<svg width="113" height="150" viewBox="0 0 113 150" fill="none" xmlns="http://www.w3.org/2000/svg">
<path d="M56.5 0C25.2367 0 0 25.125 0 56.25C0 93.75 56.5 150 56.5 150C56.5 150 113 93.75 113 56.25C113 25.125 87.7633 0 56.5 0ZM56.5 18.75C66.4898 18.75 76.0705 22.7009 83.1344 29.7335C90.1982 36.7661 94.1667 46.3044 94.1667 56.25C94.1667 77.0625 77.405 93.75 56.5 93.75C46.5102 93.75 36.9295 89.7991 29.8656 82.7665C22.8018 75.7339 18.8333 66.1956 18.8333 56.25C18.8333 46.3044 22.8018 36.7661 29.8656 29.7335C36.9295 22.7009 46.5102 18.75 56.5 18.75Z" fill="#F55F61"/>
</svg>
