<svg width="50" height="45" viewBox="0 0 22 31" fill="none" xmlns="http://www.w3.org/2000/svg">
<path d="M10.7917 30.8333C3.59722 21.4446 0 14.764 0 10.7917C0 7.92954 1.13698 5.18464 3.16081 3.16081C5.18464 1.13698 7.92954 0 10.7917 0C13.6538 0 16.3987 1.13698 18.4225 3.16081C20.4464 5.18464 21.5833 7.92954 21.5833 10.7917C21.5833 14.764 17.9861 21.4446 10.7917 30.8333ZM10.7917 16.9583C12.4272 16.9583 13.9957 16.3086 15.1522 15.1522C16.3086 13.9957 16.9583 12.4272 16.9583 10.7917C16.9583 9.15617 16.3086 7.58765 15.1522 6.43117C13.9957 5.2747 12.4272 4.625 10.7917 4.625C9.15617 4.625 7.58765 5.2747 6.43117 6.43117C5.2747 7.58765 4.625 9.15617 4.625 10.7917C4.625 12.4272 5.2747 13.9957 6.43117 15.1522C7.58765 16.3086 9.15617 16.9583 10.7917 16.9583Z" fill="#F97E55"/>
</svg>
