<?xml version="1.0" encoding="UTF-8"?>
<svg id="_레이어_1" data-name="레이어 1" xmlns="http://www.w3.org/2000/svg" viewBox="0 0 260.1 169">
  <defs>
    <style>
      .cls-1 {
        stroke-width: 1.16px;
      }

      .cls-1, .cls-2, .cls-3 {
        fill: #ee7a54;
        stroke: #ee7a54;
        stroke-miterlimit: 10;
      }

      .cls-2 {
        stroke-width: .11px;
      }
    </style>
  </defs>
  <rect class="cls-1" x=".58" y="148.71" width="258.94" height="19.71"/>
  <g>
    <path class="cls-3" d="M43.07,139.88c-13.89.05-27.78.1-41.67.15,4.36-36.23,18.34-66.36,41.17-94.66,10.04-8.9,21.44-16.25,33.69-21.71-1.82,17.66-.08,35,2.14,52.52.56-.07.84-.11,1.41-.18,6.5-20.27,13.4-40.38,20.66-60.39,14.43-2.63,27.68-3.43,42.32-2.63,4.91,42.16,8.52,84.35,10.33,126.76-13.91,0-27.83-.01-41.74,0-.96-21.92-1.62-43.82-1.86-65.76-.52.03-.77.04-1.29.07-5.76,21.81-11.14,43.64-15.81,65.71-10.14.01-20.28.03-30.42.06-5.02-19.17-9.78-38.56-11.39-58.37-.42.09-.63.13-1.06.21-4.12,19.05-6.44,38.7-6.49,58.21Z"/>
    <path class="cls-3" d="M258.13,140.04c-35.83-.15-71.66-.25-107.49-.29.17-11.32.2-16.91.16-27.87,14.26-20.03,29.1-39.75,42.53-60.35-.26-.45-.39-.67-.65-1.12-11.81-3.49-23.9-5.99-36.12-7.48-1.8-9.65-3.72-19.3-5.75-28.9,27.61,5.87,48.71,16.37,69.97,34.94,5.4,5.64,7.9,8.68,12.42,15.1-5.24,15.7-17.42,29.33-26.99,42.46.29.48.43.72.72,1.2,16.19,1.57,32.34,3.51,48.42,5.95,2.13,10.21,2.72,15.52,2.77,26.36Z"/>
  </g>
  <path class="cls-2" d="M130.27.06c-6.99,0-12.66,5.67-12.66,12.66h25.31c0-6.99-5.67-12.66-12.66-12.66Z"/>
</svg>