<svg xmlns="http://www.w3.org/2000/svg" width="221" height="78" viewBox="0 0 221 78" fill="none">
  <path d="M109.147 62.7822H8.59375V70.4691H109.147V62.7822Z" fill="white"/>
  <path d="M24.8252 59.7324H8.5C10.1659 45.3882 15.75 33.54 24.8796 22.4523C28.7473 18.9072 33.1626 15.9705 37.9273 13.7865C37.139 20.7558 37.7992 27.6042 38.6496 34.5267C38.8709 34.4955 38.9797 34.4838 39.201 34.4526C41.7562 26.4342 44.4978 18.4899 47.3403 10.569C52.9672 9.51602 58.1203 9.19622 63.8325 9.51602C65.844 26.2002 67.2071 42.939 67.8905 59.7285H51.5614C51.1809 51.0354 50.9168 42.354 50.8275 33.6531C50.6256 33.6648 50.5246 33.6687 50.3227 33.6804C48.0665 42.3228 45.9618 50.9808 44.1444 59.7285H32.2422C30.2579 52.1391 28.3823 44.46 27.7804 36.6093C27.6134 36.6444 27.5318 36.66 27.3687 36.6951C25.7106 44.3079 25.0233 51.9519 24.8291 59.7285L24.8252 59.7324Z" fill="white"/>
  <path d="M108.999 59.7325H66.9121C66.9742 56.0509 66.9975 52.3615 66.982 48.6799C72.5545 40.7512 78.3677 32.9512 83.5868 24.7768C83.4859 24.5974 83.4315 24.5116 83.3305 24.3322C78.7211 22.9438 73.9991 21.9493 69.2226 21.3565C68.512 17.5423 67.7548 13.732 66.9509 9.93335C77.7309 12.2811 85.9012 16.4659 94.1027 23.8681C96.2657 26.0755 97.2675 27.265 99.081 29.7844C97.217 35.9815 92.3707 41.3908 88.6816 46.531C88.7943 46.7221 88.8525 46.8157 88.9651 47.0068C95.3026 47.6191 101.632 48.3757 107.931 49.3234C108.774 53.3521 108.999 55.4503 108.999 59.7286V59.7325Z" fill="white"/>
  <path d="M58.9553 4.80481C56.2409 4.80481 54.0391 7.01611 54.0391 9.74221H63.8676C63.8676 7.01611 61.6658 4.80481 58.9514 4.80481H58.9553Z" fill="white"/>
  <path d="M159.765 51.831C158.273 52.0962 156.957 52.1391 155.815 51.9636C154.631 51.831 153.664 51.4332 152.961 50.7741C152.173 50.1579 151.819 49.2297 151.819 47.9973V45.1776C151.819 44.6472 151.687 44.2533 151.423 43.8984C151.159 43.6332 150.678 43.4577 150.064 43.4577H143.439V45.8835C143.439 47.1159 143.133 48.1767 142.562 48.9684C141.948 49.8069 141.071 50.466 140.018 50.9496C138.919 51.48 137.603 51.831 136.112 52.0533C134.574 52.3185 132.908 52.4511 131.063 52.5369L132.512 57.6498C133.786 57.6498 135.102 57.5601 136.461 57.4275C137.778 57.252 139.051 56.9868 140.321 56.6358C141.548 56.2848 142.737 55.7973 143.874 55.2708C144.973 54.6546 145.979 53.9916 146.857 53.157C147.47 54.1281 148.305 54.8769 149.272 55.4931C150.239 56.0664 151.291 56.5071 152.433 56.8152C153.575 57.0804 154.759 57.213 155.986 57.2559C157.171 57.2559 158.355 57.213 159.497 57.0804C160.596 56.9049 161.648 56.6826 162.611 56.4213C163.578 56.1132 164.366 55.8051 164.98 55.497L164.102 50.739C162.654 51.2694 161.205 51.6204 159.757 51.8427L159.765 51.831Z" fill="white"/>
  <path d="M150.375 41.34V27.9435C150.375 26.7111 150.111 25.7829 149.63 25.2564C149.102 24.726 148.271 24.4647 147.129 24.4647H128.61C128.082 24.4647 127.6 24.6402 127.251 24.9054C126.854 25.2135 126.68 25.6971 126.68 26.3601C126.68 27.066 126.854 27.5496 127.251 27.8148C127.6 28.1229 128.085 28.2555 128.61 28.2555H129.709V37.8651C129.709 39.1443 129.973 40.0257 130.497 40.5522C130.978 41.0826 131.813 41.3439 132.955 41.3439H150.375V41.34ZM137.825 29.1759H141.56C141.945 29.1759 142.259 29.4918 142.259 29.8779V36.6249H138.881C138.178 36.6249 137.829 36.2739 137.829 35.5212V29.1759H137.825Z" fill="white"/>
  <path d="M162.837 24.5505C162.837 24.0201 162.705 23.6262 162.441 23.2713C162.177 23.0061 161.695 22.8306 161.082 22.8306H153.226C152.698 22.8306 152.216 23.0061 151.867 23.2713C151.471 23.5794 151.296 24.063 151.296 24.726C151.296 25.4319 151.471 25.9155 151.867 26.1807C152.216 26.4888 152.702 26.6214 153.226 26.6214H154.5V44.2065H162.837V35.8761H167.575V30.7203H162.837V24.5505Z" fill="white"/>
  <path d="M180.521 36.6249C180.917 37.7286 181.488 38.61 182.233 39.2262C182.936 39.8892 183.771 40.3728 184.645 40.638C185.48 40.989 186.358 41.1216 187.321 41.1216C188.241 41.1645 189.119 41.0787 189.996 40.9032C190.784 40.7277 191.577 40.5054 192.279 40.1973C192.94 39.9321 193.464 39.624 193.817 39.273L192.94 34.5111C191.58 35.3028 190.439 35.7903 189.472 35.8761C188.462 36.0087 187.674 35.919 187.06 35.568C186.4 35.2599 185.919 34.7295 185.655 34.0236C185.348 33.3645 185.216 32.6118 185.216 31.8201V29.3982H190.482C191.095 29.3982 191.491 29.2656 191.709 28.9575C191.883 28.6923 192.015 28.2945 192.015 27.768V24.4608H170.075V27.768C170.075 28.2984 170.164 28.6923 170.382 28.9575C170.557 29.2656 170.995 29.3982 171.609 29.3982H176.875V29.8818C176.875 30.9855 176.657 31.9527 176.261 32.7483C175.822 33.6297 175.209 34.3356 174.463 34.9089C173.675 35.5251 172.797 36.0555 171.741 36.4065C170.689 36.8472 169.504 37.1124 168.23 37.2879L170.599 42.0927C172.793 41.652 174.723 40.989 176.393 40.1115C178.016 39.273 179.375 38.1264 180.517 36.6288L180.521 36.6249Z" fill="white"/>
  <path d="M196.403 44.9553H181.79V42.7089H173.453V53.4183C173.453 54.1242 173.496 54.6975 173.628 55.224C173.717 55.6647 173.935 56.0625 174.288 56.4135C174.595 56.6787 175.034 56.8971 175.604 57.0726C176.133 57.2052 176.789 57.2949 177.666 57.2949H204.741V42.705H196.403V44.9514V44.9553ZM196.403 52.3146H182.625C182.276 52.3146 182.055 52.2717 181.965 52.1391C181.833 52.0494 181.79 51.8739 181.79 51.5229V49.9356H196.403V52.3146Z" fill="white"/>
  <path d="M207.91 19.5273V16.8987H204.772V21.4305C204.764 22.035 204.52 22.2768 204.221 22.2768H202.042V16.887H198.858V22.2924H197.068C196.598 22.2924 196.082 21.8595 196.082 21.4071V16.8714L193.025 16.8987V22.971V24.5427C193.025 25.8921 194.113 26.9841 195.456 26.9841H196.21C196.318 26.9841 196.404 27.0738 196.404 27.1791V41.1255H204.741V27.1791C204.741 27.0699 204.83 26.9841 204.935 26.9841H205.487C206.83 26.9841 207.918 25.8921 207.918 24.5427V19.7028C207.918 19.6443 207.914 19.5897 207.91 19.5312V19.5273Z" fill="white"/>
</svg>