<svg width="34" height="34" viewBox="0 0 34 34" fill="none" xmlns="http://www.w3.org/2000/svg">
<path fill-rule="evenodd" clip-rule="evenodd" d="M21.5879 22.7799C21.4313 22.9259 21.3057 23.1018 21.2186 23.2973C21.1315 23.4928 21.0846 23.7038 21.0809 23.9178C21.0771 24.1318 21.1165 24.3444 21.1966 24.5428C21.2768 24.7413 21.3961 24.9216 21.5474 25.0729C21.6988 25.2242 21.879 25.3435 22.0775 25.4237C22.2759 25.5039 22.4885 25.5432 22.7025 25.5395C22.9165 25.5357 23.1275 25.4888 23.323 25.4017C23.5185 25.3146 23.6945 25.189 23.8404 25.0324L30.7466 18.1262L31.875 16.9999L30.7488 15.8737L23.8425 8.96744C23.5421 8.67698 23.1395 8.51615 22.7217 8.51959C22.3038 8.52302 21.904 8.69044 21.6083 8.9858C21.3127 9.28115 21.1449 9.68081 21.1411 10.0987C21.1372 10.5166 21.2977 10.9192 21.5879 11.2199L25.7741 15.4062H3.71875C3.29606 15.4062 2.89068 15.5741 2.5918 15.873C2.29291 16.1719 2.125 16.5773 2.125 16.9999C2.125 17.4226 2.29291 17.828 2.5918 18.1269C2.89068 18.4258 3.29606 18.5937 3.71875 18.5937H25.7741L21.5879 22.7799Z" fill="white"/>
</svg>
