<svg xmlns="http://www.w3.org/2000/svg" width="16" height="19" viewBox="0 0 16 19" fill="none">
  <path d="M7.75 0C9.80543 0 11.7771 0.816124 13.2305 2.26953C14.6839 3.72294 15.5 5.69457 15.5 7.75C15.5 13.4991 8.50209 18.2286 8.16016 18.4199C8.04052 18.5052 7.89692 18.5506 7.75 18.5498C7.60308 18.5506 7.45948 18.5052 7.33984 18.4199C7.0377 18.2285 0 13.4991 0 7.75C0 5.69457 0.816124 3.72294 2.26953 2.26953C3.72294 0.816124 5.69457 0 7.75 0ZM7.75 1.5498C6.09943 1.54449 4.51459 2.19498 3.34277 3.35742C2.17096 4.51986 1.50794 6.09943 1.5 7.75C1.5 11.9599 6.28993 15.8098 7.75 16.8799C9.21007 15.8098 14 11.9599 14 7.75C13.9921 6.09943 13.329 4.51986 12.1572 3.35742C10.9854 2.19498 9.40057 1.54449 7.75 1.5498ZM7.21387 4.60254C7.74719 4.49654 8.30036 4.55168 8.80273 4.75977C9.30503 4.96793 9.73405 5.32036 10.0361 5.77246C10.3383 6.22464 10.5 6.75597 10.5 7.2998C10.5 8.02911 10.21 8.72842 9.69434 9.24414C9.17861 9.75987 8.47935 10.0498 7.75 10.0498C7.2063 10.0498 6.67478 9.88887 6.22266 9.58691C5.77043 9.28474 5.41713 8.85503 5.20898 8.35254C5.00087 7.8501 4.94668 7.29706 5.05273 6.76367C5.15884 6.23022 5.42107 5.74006 5.80566 5.35547C6.19024 4.97092 6.68046 4.70864 7.21387 4.60254ZM7.75 6.0498C7.50279 6.0498 7.26122 6.12341 7.05566 6.26074C6.85015 6.39807 6.68934 6.59294 6.59473 6.82129C6.50012 7.0497 6.47618 7.30147 6.52441 7.54395C6.57266 7.78631 6.69149 8.00883 6.86621 8.18359C7.04098 8.35836 7.26346 8.47811 7.50586 8.52637C7.74834 8.5746 8.00011 8.54969 8.22852 8.45508C8.4569 8.36047 8.65172 8.19969 8.78906 7.99414C8.92638 7.7886 9 7.547 9 7.2998C8.99995 6.96835 8.86817 6.65039 8.63379 6.41602C8.39938 6.18165 8.08148 6.0498 7.75 6.0498Z" fill="#E7673C"/>
</svg>