<svg width="31" height="31" viewBox="0 0 31 31" fill="none" xmlns="http://www.w3.org/2000/svg">
<path d="M29.2503 29.2503L22.5549 22.5549M22.5549 22.5549C23.7001 21.4096 24.6086 20.0499 25.2285 18.5535C25.8483 17.0571 26.1673 15.4533 26.1673 13.8337C26.1673 12.214 25.8483 10.6102 25.2285 9.11377C24.6086 7.61738 23.7001 6.25773 22.5549 5.11244C21.4096 3.96716 20.0499 3.05867 18.5535 2.43884C17.0571 1.81902 15.4533 1.5 13.8337 1.5C12.214 1.5 10.6102 1.81902 9.11377 2.43884C7.61738 3.05867 6.25773 3.96716 5.11244 5.11244C2.79943 7.42545 1.5 10.5626 1.5 13.8337C1.5 17.1047 2.79943 20.2419 5.11244 22.5549C7.42545 24.8679 10.5626 26.1673 13.8337 26.1673C17.1047 26.1673 20.2418 24.8679 22.5549 22.5549Z" stroke="#FF6C6F" stroke-width="3" stroke-linecap="round" stroke-linejoin="round"/>
</svg>
