<svg
            
             xmlns="http://www.w3.org/2000/svg" 
             width="53" 
             height="53" 
             viewBox="0 0 53 53" 
             fill="none">
                <path d="M26.5 26.5C22.8562 26.5 19.737 25.2026 17.1422 22.6078C14.5474 20.013 13.25 16.8937 13.25 13.25C13.25 9.60625 14.5474 6.48698 17.1422 3.89219C19.737 1.2974 22.8562 0 26.5 0C30.1437 0 33.263 1.2974 35.8578 3.89219C38.4526 6.48698 39.75 9.60625 39.75 13.25C39.75 16.8937 38.4526 20.013 35.8578 22.6078C33.263 25.2026 30.1437 26.5 26.5 26.5ZM0 46.375V43.725C0 41.8479 0.483626 40.1232 1.45088 38.5509C2.41813 36.9785 3.70117 35.7772 5.3 34.9469C8.72291 33.2354 12.201 31.9524 15.7344 31.0977C19.2677 30.2431 22.8562 29.8147 26.5 29.8125C30.1437 29.8103 33.7323 30.2387 37.2656 31.0977C40.799 31.9568 44.2771 33.2398 47.7 34.9469C49.301 35.775 50.5852 36.9763 51.5524 38.5509C52.5197 40.1254 53.0022 41.8501 53 43.725V46.375C53 48.1969 52.3518 49.7571 51.0556 51.0556C49.7593 52.3541 48.1991 53.0022 46.375 53H6.625C4.80312 53 3.24404 52.3518 1.94775 51.0556C0.651458 49.7593 0.00220833 48.1991 0 46.375Z" 
                fill="#F97E55"/>
            </svg>